# Blender v2.82 (sub 7) OBJ File: ''
# www.blender.org
mtllib large-tooth.mtl
o Large-Tooth
v 0.000000 1.500000 -0.400000
v 0.150000 0.500000 0.050000
v 0.000000 0.750000 -0.200000
v 0.000000 0.000000 -0.150000
v 0.250000 -0.250000 0.100000
v 0.100000 0.600000 0.350000
v 0.100000 -0.250000 0.400000
v 0.000000 -0.500000 -0.200000
v 0.250000 -0.500000 0.050000
v 0.150000 -0.500000 0.350000
v 0.050000 1.250000 0.000000
v -0.150000 0.500000 0.050000
v -0.250000 -0.250000 0.100000
v -0.100000 0.600000 0.350000
v -0.100000 -0.250000 0.400000
v -0.250000 -0.500000 0.050000
v -0.150000 -0.500000 0.350000
v -0.050000 1.250000 0.000000
vn 0.7632 -0.1665 -0.6244
vn 0.8406 -0.0360 -0.5404
vn 0.7318 0.0523 -0.6795
vn 0.9833 0.1389 0.1176
vn 0.8941 0.0263 0.4471
vn 0.7383 0.0671 -0.6712
vn 0.7001 0.1400 -0.7001
vn 0.9468 -0.0631 0.3156
vn 0.8909 0.0891 0.4454
vn -0.9907 -0.1292 0.0431
vn -0.7632 -0.1665 -0.6244
vn -0.8406 -0.0360 -0.5404
vn -0.7318 0.0523 -0.6795
vn -0.9833 0.1389 0.1176
vn -0.8941 0.0263 0.4471
vn -0.7001 0.1400 -0.7001
vn -0.7383 0.0671 -0.6712
vn -0.9468 -0.0631 0.3156
vn -0.8909 0.0891 0.4454
vn 0.9907 -0.1292 0.0431
vn 0.0000 -0.4741 -0.8805
vn 0.0000 0.8480 0.5300
vn 0.0000 0.0587 0.9983
vn 0.0000 0.1961 -0.9806
vn 0.0000 1.0000 0.0000
usemtl None
s off
f 1//1 2//1 3//1
f 3//2 2//2 4//2
f 4//3 2//3 5//3
f 6//4 5//4 2//4
f 7//5 5//5 6//5
f 5//6 8//6 4//6
f 8//7 5//7 9//7
f 5//8 10//8 9//8
f 10//9 5//9 7//9
f 11//4 6//4 2//4
f 11//10 1//10 2//10
f 3//11 12//11 1//11
f 4//12 12//12 3//12
f 13//13 12//13 4//13
f 12//14 13//14 14//14
f 14//15 13//15 15//15
f 13//16 8//16 16//16
f 8//17 13//17 4//17
f 17//18 13//18 16//18
f 13//19 17//19 15//19
f 12//14 14//14 18//14
f 12//20 1//20 18//20
f 6//21 18//21 11//21
f 18//21 6//21 14//21
f 18//22 11//22 1//22
f 15//23 6//23 14//23
f 6//23 15//23 7//23
f 10//24 15//24 7//24
f 15//24 10//24 17//24
f 16//25 9//25 8//25
f 9//25 16//25 10//25
f 10//25 16//25 17//25
