# Blender v2.82 (sub 7) OBJ File: ''
# www.blender.org
mtllib small-tooth.mtl
o Small-Tooth
v 0.000000 0.500000 -0.333333
v 0.074074 -0.055556 0.296296
v 0.111111 -0.240741 -0.074074
v 0.000000 -0.055556 -0.259259
v 0.000000 -0.500000 -0.296296
v 0.185185 -0.500000 -0.074074
v 0.074074 -0.500000 0.333333
v -0.111111 -0.240741 -0.074074
v -0.074074 -0.055556 0.296296
v -0.185185 -0.500000 -0.074074
v -0.074074 -0.500000 0.333333
vn 0.9876 0.1555 0.0210
vn 0.8198 -0.0757 -0.5676
vn 0.8741 0.0403 -0.4841
vn 0.7504 0.2144 -0.6253
vn 0.9607 0.2745 -0.0412
vn 0.9645 0.0219 0.2631
vn -0.9876 0.1555 0.0210
vn -0.8198 -0.0757 -0.5676
vn -0.8741 0.0403 -0.4841
vn -0.7504 0.2144 -0.6253
vn -0.9607 0.2745 -0.0412
vn -0.9645 0.0219 0.2631
vn 0.0000 0.7498 0.6616
vn 0.0000 0.0830 0.9965
vn 0.0000 -1.0000 -0.0000
usemtl None
s off
f 1//1 2//1 3//1
f 1//2 3//2 4//2
f 4//3 3//3 5//3
f 5//4 3//4 6//4
f 2//5 6//5 3//5
f 7//6 6//6 2//6
f 8//7 9//7 1//7
f 4//8 8//8 1//8
f 5//9 8//9 4//9
f 10//10 8//10 5//10
f 8//11 10//11 9//11
f 9//12 10//12 11//12
f 9//13 2//13 1//13
f 11//14 2//14 9//14
f 2//14 11//14 7//14
f 10//15 6//15 7//15
f 10//15 7//15 11//15
f 6//15 10//15 5//15
